<svg xmlns="http://www.w3.org/2000/svg" xmlns:xlink="http://www.w3.org/1999/xlink" viewBox="0,0,256,256" width="48px" height="48px" fill-rule="nonzero"><g fill="none" fill-rule="nonzero" stroke="none" stroke-width="none" stroke-linecap="none" stroke-linejoin="none" stroke-miterlimit="10" stroke-dasharray="" stroke-dashoffset="0" font-family="none" font-weight="none" font-size="none" text-anchor="none" style="mix-blend-mode: normal"><g transform="scale(5.33333,5.33333)"><path d="M44.5,38.3l-8.3,-8.3c2.3,-4.9 1.5,-10.9 -2.6,-15c-5.1,-5.1 -13.5,-5.1 -18.6,0c-5.1,5.1 -5.1,13.5 0,18.6c4.1,4.1 10.1,4.9 15,2.6l8.3,8.3c1.7,1.7 4.5,1.7 6.2,0c1.7,-1.7 1.7,-4.5 0,-6.2z" fill="#c19191" stroke="none" stroke-width="1" stroke-linecap="butt" stroke-linejoin="miter"></path><path d="M32.4,26.2l8.1,8.1c1.7,1.7 1.7,4.5 0,6.2v0c-1.7,1.7 -4.5,1.7 -6.2,0l-4.3,-4.3" fill="none" stroke="#18193f" stroke-width="3" stroke-linecap="round" stroke-linejoin="round"></path><path d="M8,25c-1.8,-4.7 -0.8,-10.2 3,-14c3.8,-3.8 9.5,-4.8 14.2,-2.9" fill="none" stroke="#18193f" stroke-width="3" stroke-linecap="round" stroke-linejoin="round"></path><path d="M31.3,13.1c3.4,5.1 2.8,12.1 -1.7,16.6c-4.9,4.9 -12.6,5.1 -17.7,0.8" fill="none" stroke="#18193f" stroke-width="3" stroke-linecap="round" stroke-linejoin="round"></path></g></g></svg>